<svg id="visual" viewBox="0 0 900 600" width="900" height="600" xmlns="http://www.w3.org/2000/svg" xmlns:xlink="http://www.w3.org/1999/xlink" version="1.1"><rect x="0" y="0" width="900" height="600" fill="#fff"></rect><path d="M0 442L129 362L257 423L386 434L514 405L643 386L771 397L900 356L900 601L771 601L643 601L514 601L386 601L257 601L129 601L0 601Z" fill="#ef4444"></path><path d="M0 404L129 397L257 429L386 421L514 397L643 398L771 467L900 452L900 601L771 601L643 601L514 601L386 601L257 601L129 601L0 601Z" fill="#d43833"></path><path d="M0 456L129 466L257 464L386 494L514 442L643 477L771 501L900 501L900 601L771 601L643 601L514 601L386 601L257 601L129 601L0 601Z" fill="#ba2c22"></path><path d="M0 485L129 540L257 505L386 501L514 484L643 486L771 507L900 505L900 601L771 601L643 601L514 601L386 601L257 601L129 601L0 601Z" fill="#a02012"></path><path d="M0 553L129 544L257 537L386 558L514 548L643 557L771 547L900 557L900 601L771 601L643 601L514 601L386 601L257 601L129 601L0 601Z" fill="#871400"></path></svg>