<svg id="visual" viewBox="0 0 2440 740" width="2440" height="740" xmlns="http://www.w3.org/2000/svg" xmlns:xlink="http://www.w3.org/1999/xlink" version="1.1"><rect x="0" y="0" width="2440" height="740" fill="#001220"></rect><path d="M0 457L58.2 468.2C116.3 479.3 232.7 501.7 348.8 506.5C465 511.3 581 498.7 697.2 501.3C813.3 504 929.7 522 1045.8 528.8C1162 535.7 1278 531.3 1394.2 530.3C1510.3 529.3 1626.7 531.7 1742.8 528.7C1859 525.7 1975 517.3 2091.2 515C2207.3 512.7 2323.7 516.3 2381.8 518.2L2440 520L2440 741L2381.8 741C2323.7 741 2207.3 741 2091.2 741C1975 741 1859 741 1742.8 741C1626.7 741 1510.3 741 1394.2 741C1278 741 1162 741 1045.8 741C929.7 741 813.3 741 697.2 741C581 741 465 741 348.8 741C232.7 741 116.3 741 58.2 741L0 741Z" fill="#4b5563"></path><path d="M0 538L58.2 544.8C116.3 551.7 232.7 565.3 348.8 565.2C465 565 581 551 697.2 536.8C813.3 522.7 929.7 508.3 1045.8 515.7C1162 523 1278 552 1394.2 560.7C1510.3 569.3 1626.7 557.7 1742.8 550.5C1859 543.3 1975 540.7 2091.2 542.8C2207.3 545 2323.7 552 2381.8 555.5L2440 559L2440 741L2381.8 741C2323.7 741 2207.3 741 2091.2 741C1975 741 1859 741 1742.8 741C1626.7 741 1510.3 741 1394.2 741C1278 741 1162 741 1045.8 741C929.7 741 813.3 741 697.2 741C581 741 465 741 348.8 741C232.7 741 116.3 741 58.2 741L0 741Z" fill="#37404e"></path><path d="M0 613L58.2 606.8C116.3 600.7 232.7 588.3 348.8 588.7C465 589 581 602 697.2 605.3C813.3 608.7 929.7 602.3 1045.8 597.7C1162 593 1278 590 1394.2 586.7C1510.3 583.3 1626.7 579.7 1742.8 573.5C1859 567.3 1975 558.7 2091.2 555.3C2207.3 552 2323.7 554 2381.8 555L2440 556L2440 741L2381.8 741C2323.7 741 2207.3 741 2091.2 741C1975 741 1859 741 1742.8 741C1626.7 741 1510.3 741 1394.2 741C1278 741 1162 741 1045.8 741C929.7 741 813.3 741 697.2 741C581 741 465 741 348.8 741C232.7 741 116.3 741 58.2 741L0 741Z" fill="#232d39"></path><path d="M0 658L58.2 654.8C116.3 651.7 232.7 645.3 348.8 638.3C465 631.3 581 623.7 697.2 617.5C813.3 611.3 929.7 606.7 1045.8 605.8C1162 605 1278 608 1394.2 616.3C1510.3 624.7 1626.7 638.3 1742.8 640.8C1859 643.3 1975 634.7 2091.2 635.2C2207.3 635.7 2323.7 645.3 2381.8 650.2L2440 655L2440 741L2381.8 741C2323.7 741 2207.3 741 2091.2 741C1975 741 1859 741 1742.8 741C1626.7 741 1510.3 741 1394.2 741C1278 741 1162 741 1045.8 741C929.7 741 813.3 741 697.2 741C581 741 465 741 348.8 741C232.7 741 116.3 741 58.2 741L0 741Z" fill="#101a25"></path><path d="M0 686L58.2 684.2C116.3 682.3 232.7 678.7 348.8 672.7C465 666.7 581 658.3 697.2 654.2C813.3 650 929.7 650 1045.8 656.5C1162 663 1278 676 1394.2 684.8C1510.3 693.7 1626.7 698.3 1742.8 697.5C1859 696.7 1975 690.3 2091.2 683.8C2207.3 677.3 2323.7 670.7 2381.8 667.3L2440 664L2440 741L2381.8 741C2323.7 741 2207.3 741 2091.2 741C1975 741 1859 741 1742.8 741C1626.7 741 1510.3 741 1394.2 741C1278 741 1162 741 1045.8 741C929.7 741 813.3 741 697.2 741C581 741 465 741 348.8 741C232.7 741 116.3 741 58.2 741L0 741Z" fill="#000000"></path></svg>