<svg xmlns="http://www.w3.org/2000/svg" version="1.1" xmlns:xlink="http://www.w3.org/1999/xlink" xmlns:svgjs="http://svgjs.dev/svgjs" width="1440" height="560" preserveAspectRatio="none" viewBox="0 0 1440 560"><g mask="url(&quot;#SvgjsMask1004&quot;)" fill="none"><rect width="1440" height="560" x="0" y="0" fill="rgba(255, 255, 255, 1)"></rect><path d="M0 149.27L10 185.14L20 128.16L30 100.02L40 99.47L50 43.36L60 101.61L70 79.78L80 147.08L90 161.1L100 178.89L110 186.08L120 188.05L130 224.3L140 157.91L150 196.47L160 199.69L170 230.81L180 279.58L190 276.73L200 234.82L210 240.12L220 226.94L230 259.65L240 247.22L250 272.02L260 333.66L270 309.19L280 244.61L290 234.54L300 298.97L310 269.89L320 279.07L330 311.35L340 379.82L350 317.92L360 254.96L370 251.43L380 269.24L390 215.51L400 159.79L410 169.03L420 105.98L430 149.4L440 212.73L450 272L460 257.82L470 196.62L480 189.1L490 231.34L500 208.85L510 264.94L520 230.36L530 283.93L540 224.89L550 285.9L560 317.73L570 370.45L580 438.42L590 476.91L600 529.94L610 509.64L620 475.96L630 503.04L640 530.27L650 496.7L660 486.8L670 417.19L680 396.18L690 371.48L700 377.24L710 340.82L720 294.78L730 325.36L740 388.97L750 325.97L760 348.01L770 401.49L780 464.42L790 409.82L800 408.43L810 346.23L820 321.78L830 308.11L840 262.5L850 260.1L860 319.23L870 280.96L880 307.38L890 301.84L900 366.47L910 380.18L920 316.63L930 350.77L940 378.09L950 388.14L960 348.28L970 312.25L980 378.4L990 411.7L1000 421.89L1010 370.93L1020 338.59L1030 304.23L1040 305.71L1050 262.04L1060 281.89L1070 244.39L1080 217.31L1090 275.8L1100 344.16L1110 407.58L1120 341.43L1130 368.94L1140 401.98L1150 386.32L1160 399.85L1170 444.62L1180 501.33L1190 483.55L1200 490.07L1210 434.53L1220 409.2L1230 463.42L1240 410.26L1250 432.04L1260 457.16L1270 451.32L1280 436.02L1290 422.44L1300 418.18L1310 417.67L1320 476.67L1330 490.26L1340 452.78L1350 411.13L1360 467.61L1370 450.46L1380 490.6L1390 554.14L1400 520.36L1410 533.85L1420 545.56L1430 501.96L1440 521.53" stroke="rgba(46, 16, 101, 1)" stroke-width="2"></path><path d="M0 149.27L10 185.14L20 128.16L30 100.02L40 99.47L50 43.36L60 101.61L70 79.78L80 147.08L90 161.1L100 178.89L110 186.08L120 188.05L130 224.3L140 157.91L150 196.47L160 199.69L170 230.81L180 279.58L190 276.73L200 234.82L210 240.12L220 226.94L230 259.65L240 247.22L250 272.02L260 333.66L270 309.19L280 244.61L290 234.54L300 298.97L310 269.89L320 279.07L330 311.35L340 379.82L350 317.92L360 254.96L370 251.43L380 269.24L390 215.51L400 159.79L410 169.03L420 105.98L430 149.4L440 212.73L450 272L460 257.82L470 196.62L480 189.1L490 231.34L500 208.85L510 264.94L520 230.36L530 283.93L540 224.89L550 285.9L560 317.73L570 370.45L580 438.42L590 476.91L600 529.94L610 509.64L620 475.96L630 503.04L640 530.27L650 496.7L660 486.8L670 417.19L680 396.18L690 371.48L700 377.24L710 340.82L720 294.78L730 325.36L740 388.97L750 325.97L760 348.01L770 401.49L780 464.42L790 409.82L800 408.43L810 346.23L820 321.78L830 308.11L840 262.5L850 260.1L860 319.23L870 280.96L880 307.38L890 301.84L900 366.47L910 380.18L920 316.63L930 350.77L940 378.09L950 388.14L960 348.28L970 312.25L980 378.4L990 411.7L1000 421.89L1010 370.93L1020 338.59L1030 304.23L1040 305.71L1050 262.04L1060 281.89L1070 244.39L1080 217.31L1090 275.8L1100 344.16L1110 407.58L1120 341.43L1130 368.94L1140 401.98L1150 386.32L1160 399.85L1170 444.62L1180 501.33L1190 483.55L1200 490.07L1210 434.53L1220 409.2L1230 463.42L1240 410.26L1250 432.04L1260 457.16L1270 451.32L1280 436.02L1290 422.44L1300 418.18L1310 417.67L1320 476.67L1330 490.26L1340 452.78L1350 411.13L1360 467.61L1370 450.46L1380 490.6L1390 554.14L1400 520.36L1410 533.85L1420 545.56L1430 501.96L1440 521.53L1440 560L0 560z" fill="url(&quot;#SvgjsLinearGradient1005&quot;)"></path></g><defs><mask id="SvgjsMask1004"><rect width="1440" height="560" fill="#ffffff"></rect></mask><linearGradient x1="50%" y1="0%" x2="50%" y2="100%" id="SvgjsLinearGradient1005"><stop stop-opacity="0.65" stop-color="rgba(46, 16, 101, 1)" offset="0"></stop><stop stop-opacity="0" stop-color="#571ebe" offset="0.8"></stop></linearGradient></defs></svg>