<svg id="visual" viewBox="0 0 1440 720" width="1440" height="720" xmlns="http://www.w3.org/2000/svg" xmlns:xlink="http://www.w3.org/1999/xlink" version="1.1"><rect x="0" y="0" width="1440" height="720" fill="#020617"></rect><path d="M0 437L34.3 453.3C68.7 469.7 137.3 502.3 205.8 509.2C274.3 516 342.7 497 411.2 479.3C479.7 461.7 548.3 445.3 617 437.2C685.7 429 754.3 429 823 431.5C891.7 434 960.3 439 1028.8 451.7C1097.3 464.3 1165.7 484.7 1234.2 496.8C1302.7 509 1371.3 513 1405.7 515L1440 517L1440 721L1405.7 721C1371.3 721 1302.7 721 1234.2 721C1165.7 721 1097.3 721 1028.8 721C960.3 721 891.7 721 823 721C754.3 721 685.7 721 617 721C548.3 721 479.7 721 411.2 721C342.7 721 274.3 721 205.8 721C137.3 721 68.7 721 34.3 721L0 721Z" fill="#4a6cf7"></path><path d="M0 540L34.3 537.3C68.7 534.7 137.3 529.3 205.8 523.8C274.3 518.3 342.7 512.7 411.2 512.8C479.7 513 548.3 519 617 523.5C685.7 528 754.3 531 823 531C891.7 531 960.3 528 1028.8 518.2C1097.3 508.3 1165.7 491.7 1234.2 489.2C1302.7 486.7 1371.3 498.3 1405.7 504.2L1440 510L1440 721L1405.7 721C1371.3 721 1302.7 721 1234.2 721C1165.7 721 1097.3 721 1028.8 721C960.3 721 891.7 721 823 721C754.3 721 685.7 721 617 721C548.3 721 479.7 721 411.2 721C342.7 721 274.3 721 205.8 721C137.3 721 68.7 721 34.3 721L0 721Z" fill="#4356c8"></path><path d="M0 578L34.3 578.8C68.7 579.7 137.3 581.3 205.8 572.8C274.3 564.3 342.7 545.7 411.2 549.8C479.7 554 548.3 581 617 592.5C685.7 604 754.3 600 823 598.2C891.7 596.3 960.3 596.7 1028.8 590C1097.3 583.3 1165.7 569.7 1234.2 567.2C1302.7 564.7 1371.3 573.3 1405.7 577.7L1440 582L1440 721L1405.7 721C1371.3 721 1302.7 721 1234.2 721C1165.7 721 1097.3 721 1028.8 721C960.3 721 891.7 721 823 721C754.3 721 685.7 721 617 721C548.3 721 479.7 721 411.2 721C342.7 721 274.3 721 205.8 721C137.3 721 68.7 721 34.3 721L0 721Z" fill="#39419c"></path><path d="M0 578L34.3 582.2C68.7 586.3 137.3 594.7 205.8 599C274.3 603.3 342.7 603.7 411.2 606.3C479.7 609 548.3 614 617 621.5C685.7 629 754.3 639 823 639C891.7 639 960.3 629 1028.8 624.3C1097.3 619.7 1165.7 620.3 1234.2 621.5C1302.7 622.7 1371.3 624.3 1405.7 625.2L1440 626L1440 721L1405.7 721C1371.3 721 1302.7 721 1234.2 721C1165.7 721 1097.3 721 1028.8 721C960.3 721 891.7 721 823 721C754.3 721 685.7 721 617 721C548.3 721 479.7 721 411.2 721C342.7 721 274.3 721 205.8 721C137.3 721 68.7 721 34.3 721L0 721Z" fill="#2c2d72"></path><path d="M0 637L34.3 641.3C68.7 645.7 137.3 654.3 205.8 663C274.3 671.7 342.7 680.3 411.2 681.7C479.7 683 548.3 677 617 674.8C685.7 672.7 754.3 674.3 823 668C891.7 661.7 960.3 647.3 1028.8 640.7C1097.3 634 1165.7 635 1234.2 636C1302.7 637 1371.3 638 1405.7 638.5L1440 639L1440 721L1405.7 721C1371.3 721 1302.7 721 1234.2 721C1165.7 721 1097.3 721 1028.8 721C960.3 721 891.7 721 823 721C754.3 721 685.7 721 617 721C548.3 721 479.7 721 411.2 721C342.7 721 274.3 721 205.8 721C137.3 721 68.7 721 34.3 721L0 721Z" fill="#1e1b4b"></path></svg>