<svg id="visual" viewBox="0 0 2440 740" width="2440" height="740" xmlns="http://www.w3.org/2000/svg" xmlns:xlink="http://www.w3.org/1999/xlink" version="1.1"><rect x="0" y="0" width="2440" height="740" fill="#fff"></rect><path d="M0 597L58.2 604.7C116.3 612.3 232.7 627.7 348.8 619C465 610.3 581 577.7 697.2 552.2C813.3 526.7 929.7 508.3 1045.8 526C1162 543.7 1278 597.3 1394.2 623.8C1510.3 650.3 1626.7 649.7 1742.8 638.2C1859 626.7 1975 604.3 2091.2 571.3C2207.3 538.3 2323.7 494.7 2381.8 472.8L2440 451L2440 741L2381.8 741C2323.7 741 2207.3 741 2091.2 741C1975 741 1859 741 1742.8 741C1626.7 741 1510.3 741 1394.2 741C1278 741 1162 741 1045.8 741C929.7 741 813.3 741 697.2 741C581 741 465 741 348.8 741C232.7 741 116.3 741 58.2 741L0 741Z" fill="#ef4444"></path><path d="M0 507L58.2 520.2C116.3 533.3 232.7 559.7 348.8 558.8C465 558 581 530 697.2 537.3C813.3 544.7 929.7 587.3 1045.8 609C1162 630.7 1278 631.3 1394.2 625.8C1510.3 620.3 1626.7 608.7 1742.8 609.8C1859 611 1975 625 2091.2 631.2C2207.3 637.3 2323.7 635.7 2381.8 634.8L2440 634L2440 741L2381.8 741C2323.7 741 2207.3 741 2091.2 741C1975 741 1859 741 1742.8 741C1626.7 741 1510.3 741 1394.2 741C1278 741 1162 741 1045.8 741C929.7 741 813.3 741 697.2 741C581 741 465 741 348.8 741C232.7 741 116.3 741 58.2 741L0 741Z" fill="#c63e3f"></path><path d="M0 568L58.2 579.3C116.3 590.7 232.7 613.3 348.8 632C465 650.7 581 665.3 697.2 660C813.3 654.7 929.7 629.3 1045.8 607.2C1162 585 1278 566 1394.2 570.7C1510.3 575.3 1626.7 603.7 1742.8 615.8C1859 628 1975 624 2091.2 609.8C2207.3 595.7 2323.7 571.3 2381.8 559.2L2440 547L2440 741L2381.8 741C2323.7 741 2207.3 741 2091.2 741C1975 741 1859 741 1742.8 741C1626.7 741 1510.3 741 1394.2 741C1278 741 1162 741 1045.8 741C929.7 741 813.3 741 697.2 741C581 741 465 741 348.8 741C232.7 741 116.3 741 58.2 741L0 741Z" fill="#9e3839"></path><path d="M0 697L58.2 694.2C116.3 691.3 232.7 685.7 348.8 677.2C465 668.7 581 657.3 697.2 643.5C813.3 629.7 929.7 613.3 1045.8 623.5C1162 633.7 1278 670.3 1394.2 691C1510.3 711.7 1626.7 716.3 1742.8 704.5C1859 692.7 1975 664.3 2091.2 664.5C2207.3 664.7 2323.7 693.3 2381.8 707.7L2440 722L2440 741L2381.8 741C2323.7 741 2207.3 741 2091.2 741C1975 741 1859 741 1742.8 741C1626.7 741 1510.3 741 1394.2 741C1278 741 1162 741 1045.8 741C929.7 741 813.3 741 697.2 741C581 741 465 741 348.8 741C232.7 741 116.3 741 58.2 741L0 741Z" fill="#773232"></path><path d="M0 692L58.2 685C116.3 678 232.7 664 348.8 667.8C465 671.7 581 693.3 697.2 692.7C813.3 692 929.7 669 1045.8 670.3C1162 671.7 1278 697.3 1394.2 708.5C1510.3 719.7 1626.7 716.3 1742.8 716.7C1859 717 1975 721 2091.2 714.8C2207.3 708.7 2323.7 692.3 2381.8 684.2L2440 676L2440 741L2381.8 741C2323.7 741 2207.3 741 2091.2 741C1975 741 1859 741 1742.8 741C1626.7 741 1510.3 741 1394.2 741C1278 741 1162 741 1045.8 741C929.7 741 813.3 741 697.2 741C581 741 465 741 348.8 741C232.7 741 116.3 741 58.2 741L0 741Z" fill="#522a2a"></path></svg>