<svg id="visual" viewBox="0 0 900 450" width="900" height="450" xmlns="http://www.w3.org/2000/svg" xmlns:xlink="http://www.w3.org/1999/xlink" version="1.1"><rect x="0" y="0" width="900" height="450" fill="#fff"></rect><path d="M0 368L13.7 363C27.3 358 54.7 348 82 341.3C109.3 334.7 136.7 331.3 163.8 333C191 334.7 218 341.3 245.2 347.3C272.3 353.3 299.7 358.7 327 361.3C354.3 364 381.7 364 409 366.2C436.3 368.3 463.7 372.7 491 372.7C518.3 372.7 545.7 368.3 573 368.8C600.3 369.3 627.7 374.7 654.8 372.7C682 370.7 709 361.3 736.2 354.8C763.3 348.3 790.7 344.7 818 347.3C845.3 350 872.7 359 886.3 363.5L900 368L900 451L886.3 451C872.7 451 845.3 451 818 451C790.7 451 763.3 451 736.2 451C709 451 682 451 654.8 451C627.7 451 600.3 451 573 451C545.7 451 518.3 451 491 451C463.7 451 436.3 451 409 451C381.7 451 354.3 451 327 451C299.7 451 272.3 451 245.2 451C218 451 191 451 163.8 451C136.7 451 109.3 451 82 451C54.7 451 27.3 451 13.7 451L0 451Z" fill="#5b21b6"></path><path d="M0 364L13.7 370.8C27.3 377.7 54.7 391.3 82 398.2C109.3 405 136.7 405 163.8 405.7C191 406.3 218 407.7 245.2 398.8C272.3 390 299.7 371 327 362.5C354.3 354 381.7 356 409 360.7C436.3 365.3 463.7 372.7 491 378.5C518.3 384.3 545.7 388.7 573 386C600.3 383.3 627.7 373.7 654.8 376.7C682 379.7 709 395.3 736.2 399C763.3 402.7 790.7 394.3 818 393.2C845.3 392 872.7 398 886.3 401L900 404L900 451L886.3 451C872.7 451 845.3 451 818 451C790.7 451 763.3 451 736.2 451C709 451 682 451 654.8 451C627.7 451 600.3 451 573 451C545.7 451 518.3 451 491 451C463.7 451 436.3 451 409 451C381.7 451 354.3 451 327 451C299.7 451 272.3 451 245.2 451C218 451 191 451 163.8 451C136.7 451 109.3 451 82 451C54.7 451 27.3 451 13.7 451L0 451Z" fill="#44198d"></path><path d="M0 423L13.7 421C27.3 419 54.7 415 82 415.7C109.3 416.3 136.7 421.7 163.8 423.5C191 425.3 218 423.7 245.2 416.2C272.3 408.7 299.7 395.3 327 397C354.3 398.7 381.7 415.3 409 421.7C436.3 428 463.7 424 491 419.7C518.3 415.3 545.7 410.7 573 414.8C600.3 419 627.7 432 654.8 437.8C682 443.7 709 442.3 736.2 437.5C763.3 432.7 790.7 424.3 818 419.3C845.3 414.3 872.7 412.7 886.3 411.8L900 411L900 451L886.3 451C872.7 451 845.3 451 818 451C790.7 451 763.3 451 736.2 451C709 451 682 451 654.8 451C627.7 451 600.3 451 573 451C545.7 451 518.3 451 491 451C463.7 451 436.3 451 409 451C381.7 451 354.3 451 327 451C299.7 451 272.3 451 245.2 451C218 451 191 451 163.8 451C136.7 451 109.3 451 82 451C54.7 451 27.3 451 13.7 451L0 451Z" fill="#2e1065"></path></svg>