<svg id="visual" viewBox="0 0 900 600" width="900" height="600" xmlns="http://www.w3.org/2000/svg" xmlns:xlink="http://www.w3.org/1999/xlink" version="1.1"><rect x="0" y="0" width="900" height="600" fill="#fff"></rect><path d="M0 316L129 172L257 282L386 301L514 249L643 215L771 236L900 162L900 601L771 601L643 601L514 601L386 601L257 601L129 601L0 601Z" fill="#ef4444"></path><path d="M0 247L129 236L257 293L386 279L514 236L643 237L771 362L900 334L900 601L771 601L643 601L514 601L386 601L257 601L129 601L0 601Z" fill="#d43833"></path><path d="M0 342L129 360L257 357L386 410L514 317L643 380L771 422L900 423L900 601L771 601L643 601L514 601L386 601L257 601L129 601L0 601Z" fill="#ba2c22"></path><path d="M0 393L129 492L257 430L386 423L514 391L643 396L771 433L900 430L900 601L771 601L643 601L514 601L386 601L257 601L129 601L0 601Z" fill="#a02012"></path><path d="M0 517L129 500L257 487L386 525L514 508L643 523L771 505L900 524L900 601L771 601L643 601L514 601L386 601L257 601L129 601L0 601Z" fill="#871400"></path></svg>