<svg id="visual" viewBox="0 0 2440 720" width="2440" height="720" xmlns="http://www.w3.org/2000/svg" xmlns:xlink="http://www.w3.org/1999/xlink" version="1.1"><rect x="0" y="0" width="2440" height="720" fill="#fff"></rect><path d="M0 110L58.2 115.3C116.3 120.7 232.7 131.3 348.8 140C465 148.7 581 155.3 697.2 160.2C813.3 165 929.7 168 1045.8 166.3C1162 164.7 1278 158.3 1394.2 159C1510.3 159.7 1626.7 167.3 1742.8 161.2C1859 155 1975 135 2091.2 135C2207.3 135 2323.7 155 2381.8 165L2440 175L2440 0L2381.8 0C2323.7 0 2207.3 0 2091.2 0C1975 0 1859 0 1742.8 0C1626.7 0 1510.3 0 1394.2 0C1278 0 1162 0 1045.8 0C929.7 0 813.3 0 697.2 0C581 0 465 0 348.8 0C232.7 0 116.3 0 58.2 0L0 0Z" fill="#ef4444"></path><path d="M0 135L58.2 130.5C116.3 126 232.7 117 348.8 114.8C465 112.7 581 117.3 697.2 120.3C813.3 123.3 929.7 124.7 1045.8 121C1162 117.3 1278 108.7 1394.2 111.3C1510.3 114 1626.7 128 1742.8 130.8C1859 133.7 1975 125.3 2091.2 125.7C2207.3 126 2323.7 135 2381.8 139.5L2440 144L2440 0L2381.8 0C2323.7 0 2207.3 0 2091.2 0C1975 0 1859 0 1742.8 0C1626.7 0 1510.3 0 1394.2 0C1278 0 1162 0 1045.8 0C929.7 0 813.3 0 697.2 0C581 0 465 0 348.8 0C232.7 0 116.3 0 58.2 0L0 0Z" fill="#c63e3f"></path><path d="M0 110L58.2 107.2C116.3 104.3 232.7 98.7 348.8 99.2C465 99.7 581 106.3 697.2 109.3C813.3 112.3 929.7 111.7 1045.8 107.7C1162 103.7 1278 96.3 1394.2 93.3C1510.3 90.3 1626.7 91.7 1742.8 92.7C1859 93.7 1975 94.3 2091.2 95.2C2207.3 96 2323.7 97 2381.8 97.5L2440 98L2440 0L2381.8 0C2323.7 0 2207.3 0 2091.2 0C1975 0 1859 0 1742.8 0C1626.7 0 1510.3 0 1394.2 0C1278 0 1162 0 1045.8 0C929.7 0 813.3 0 697.2 0C581 0 465 0 348.8 0C232.7 0 116.3 0 58.2 0L0 0Z" fill="#9e3839"></path><path d="M0 83L58.2 81.8C116.3 80.7 232.7 78.3 348.8 71.7C465 65 581 54 697.2 53.5C813.3 53 929.7 63 1045.8 62.5C1162 62 1278 51 1394.2 48.7C1510.3 46.3 1626.7 52.7 1742.8 54.5C1859 56.3 1975 53.7 2091.2 51.5C2207.3 49.3 2323.7 47.7 2381.8 46.8L2440 46L2440 0L2381.8 0C2323.7 0 2207.3 0 2091.2 0C1975 0 1859 0 1742.8 0C1626.7 0 1510.3 0 1394.2 0C1278 0 1162 0 1045.8 0C929.7 0 813.3 0 697.2 0C581 0 465 0 348.8 0C232.7 0 116.3 0 58.2 0L0 0Z" fill="#773232"></path><path d="M0 47L58.2 47.8C116.3 48.7 232.7 50.3 348.8 51C465 51.7 581 51.3 697.2 50.5C813.3 49.7 929.7 48.3 1045.8 48.3C1162 48.3 1278 49.7 1394.2 45.3C1510.3 41 1626.7 31 1742.8 25.7C1859 20.3 1975 19.7 2091.2 21.3C2207.3 23 2323.7 27 2381.8 29L2440 31L2440 0L2381.8 0C2323.7 0 2207.3 0 2091.2 0C1975 0 1859 0 1742.8 0C1626.7 0 1510.3 0 1394.2 0C1278 0 1162 0 1045.8 0C929.7 0 813.3 0 697.2 0C581 0 465 0 348.8 0C232.7 0 116.3 0 58.2 0L0 0Z" fill="#522a2a"></path></svg>