<svg id="visual" viewBox="0 0 450 900" width="450" height="900" xmlns="http://www.w3.org/2000/svg" xmlns:xlink="http://www.w3.org/1999/xlink" version="1.1"><rect x="0" y="0" width="450" height="900" fill="#fff"></rect><defs><linearGradient id="grad1_0" x1="0%" y1="0%" x2="100%" y2="100%"><stop offset="30%" stop-color="#2e1065" stop-opacity="1"></stop><stop offset="70%" stop-color="#2e1065" stop-opacity="1"></stop></linearGradient></defs><defs><linearGradient id="grad1_1" x1="0%" y1="0%" x2="100%" y2="100%"><stop offset="30%" stop-color="#2e1065" stop-opacity="1"></stop><stop offset="70%" stop-color="#755a97" stop-opacity="1"></stop></linearGradient></defs><defs><linearGradient id="grad1_2" x1="0%" y1="0%" x2="100%" y2="100%"><stop offset="30%" stop-color="#b9a9ca" stop-opacity="1"></stop><stop offset="70%" stop-color="#755a97" stop-opacity="1"></stop></linearGradient></defs><defs><linearGradient id="grad1_3" x1="0%" y1="0%" x2="100%" y2="100%"><stop offset="30%" stop-color="#b9a9ca" stop-opacity="1"></stop><stop offset="70%" stop-color="#ffffff" stop-opacity="1"></stop></linearGradient></defs><defs><linearGradient id="grad2_0" x1="0%" y1="0%" x2="100%" y2="100%"><stop offset="30%" stop-color="#2e1065" stop-opacity="1"></stop><stop offset="70%" stop-color="#2e1065" stop-opacity="1"></stop></linearGradient></defs><defs><linearGradient id="grad2_1" x1="0%" y1="0%" x2="100%" y2="100%"><stop offset="30%" stop-color="#755a97" stop-opacity="1"></stop><stop offset="70%" stop-color="#2e1065" stop-opacity="1"></stop></linearGradient></defs><defs><linearGradient id="grad2_2" x1="0%" y1="0%" x2="100%" y2="100%"><stop offset="30%" stop-color="#755a97" stop-opacity="1"></stop><stop offset="70%" stop-color="#b9a9ca" stop-opacity="1"></stop></linearGradient></defs><defs><linearGradient id="grad2_3" x1="0%" y1="0%" x2="100%" y2="100%"><stop offset="30%" stop-color="#ffffff" stop-opacity="1"></stop><stop offset="70%" stop-color="#b9a9ca" stop-opacity="1"></stop></linearGradient></defs><g transform="translate(450, 0)"><path d="M0 292.5C-17.4 273.4 -34.8 254.3 -57.9 253.5C-80.9 252.7 -109.5 270.1 -126.9 263.5C-144.4 256.9 -150.7 226.3 -168.3 211.1C-186 195.9 -214.9 196.1 -226.7 180.8C-238.5 165.6 -233.1 134.9 -232.4 111.9C-231.8 89 -235.9 73.7 -246.7 56.3C-257.5 38.9 -275 19.5 -292.5 0L0 0Z" fill="#dcd3e4"></path><path d="M0 219.4C-13.1 205.1 -26.1 190.7 -43.4 190.1C-60.6 189.5 -82.1 202.6 -95.2 197.7C-108.3 192.7 -113 169.7 -126.3 158.3C-139.5 146.9 -161.2 147 -170 135.6C-178.9 124.2 -174.8 101.2 -174.3 84C-173.8 66.7 -176.9 55.3 -185 42.2C-193.1 29.2 -206.2 14.6 -219.4 0L0 0Z" fill="#9781b0"></path><path d="M0 146.3C-8.7 136.7 -17.4 127.2 -28.9 126.7C-40.4 126.3 -54.7 135.1 -63.5 131.8C-72.2 128.5 -75.3 113.2 -84.2 105.5C-93 97.9 -107.5 98 -113.4 90.4C-119.3 82.8 -116.6 67.5 -116.2 56C-115.9 44.5 -117.9 36.8 -123.3 28.1C-128.7 19.5 -137.5 9.7 -146.2 0L0 0Z" fill="#53357e"></path><path d="M0 73.1C-4.4 68.4 -8.7 63.6 -14.5 63.4C-20.2 63.2 -27.4 67.5 -31.7 65.9C-36.1 64.2 -37.7 56.6 -42.1 52.8C-46.5 49 -53.7 49 -56.7 45.2C-59.6 41.4 -58.3 33.7 -58.1 28C-57.9 22.2 -59 18.4 -61.7 14.1C-64.4 9.7 -68.7 4.9 -73.1 0L0 0Z" fill="#2e1065"></path></g><g transform="translate(0, 900)"><path d="M0 -292.5C18.6 -278.5 37.2 -264.4 60.1 -263.2C82.9 -262 110 -273.6 126.9 -263.5C143.8 -253.5 150.6 -221.7 160.2 -200.9C169.9 -180.1 182.5 -170.2 200.1 -159.6C217.8 -149 240.6 -137.6 250.5 -120.6C260.4 -103.6 257.4 -80.9 262.3 -59.9C267.1 -38.8 279.8 -19.4 292.5 0L0 0Z" fill="#dcd3e4"></path><path d="M0 -219.4C14 -208.9 27.9 -198.3 45.1 -197.4C62.2 -196.5 82.5 -205.2 95.2 -197.7C107.9 -190.1 112.9 -166.3 120.2 -150.7C127.4 -135.1 136.9 -127.7 150.1 -119.7C163.4 -111.7 180.4 -103.2 187.9 -90.5C195.3 -77.7 193 -60.7 196.7 -44.9C200.3 -29.1 209.9 -14.6 219.4 0L0 0Z" fill="#9781b0"></path><path d="M0 -146.2C9.3 -139.2 18.6 -132.2 30 -131.6C41.5 -131 55 -136.8 63.5 -131.8C71.9 -126.7 75.3 -110.9 80.1 -100.5C85 -90.1 91.2 -85.1 100.1 -79.8C108.9 -74.5 120.3 -68.8 125.2 -60.3C130.2 -51.8 128.7 -40.5 131.1 -29.9C133.6 -19.4 139.9 -9.7 146.3 0L0 0Z" fill="#53357e"></path><path d="M0 -73.1C4.7 -69.6 9.3 -66.1 15 -65.8C20.7 -65.5 27.5 -68.4 31.7 -65.9C36 -63.4 37.6 -55.4 40.1 -50.2C42.5 -45 45.6 -42.6 50 -39.9C54.5 -37.2 60.1 -34.4 62.6 -30.2C65.1 -25.9 64.3 -20.2 65.6 -15C66.8 -9.7 70 -4.9 73.1 0L0 0Z" fill="#2e1065"></path></g></svg>