<svg width="450" height="450" viewBox="0 0 450 450" fill="none" xmlns="http://www.w3.org/2000/svg">
<g clip-path="url(#clip0_877_10)">
<path d="M241.911 445.213C354.364 445.213 445.525 347.692 445.525 227.393C445.525 107.095 354.364 9.57422 241.911 9.57422C129.459 9.57422 38.2979 107.095 38.2979 227.393C38.2979 347.692 129.459 445.213 241.911 445.213Z" fill="#E7EAF7"/>
<path d="M441.05 225C441.023 255.989 434.815 286.615 422.841 314.832C410.868 343.05 393.403 368.209 371.615 388.63C349.827 409.051 324.216 424.264 296.493 433.252C268.771 442.24 239.574 444.797 210.855 440.751C182.135 436.705 154.552 426.151 129.95 409.792C105.347 393.433 84.2908 371.646 68.1869 345.888C52.0829 320.129 41.3022 290.99 36.5647 260.419C31.8272 229.847 33.242 198.546 40.7147 168.606C79.9042 209.008 132.197 231.604 186.623 231.654C201.302 231.888 215.908 229.385 229.784 224.258C262.161 211.428 285.096 180 300.423 146.92C309.373 127.388 316.622 106.66 328.615 89.0186C338.236 75.0134 350.658 63.4828 364.975 55.2686C388.736 75.6517 407.91 101.488 421.078 130.868C434.246 160.247 441.072 192.418 441.05 225Z" fill="#D5D7E2"/>
<path opacity="0.5" d="M60.673 229.787C60.6744 174.091 80.6198 120.511 116.409 80.0605C152.199 39.6103 201.114 15.3631 253.099 12.3029C249.4 12.0795 245.67 11.9678 241.911 11.9678C187.91 11.9678 136.12 34.9165 97.9349 75.7655C59.7499 116.615 38.2979 172.018 38.2979 229.787C38.2979 287.556 59.7499 342.959 97.9349 383.808C136.12 424.657 187.91 447.606 241.911 447.606C245.67 447.606 249.4 447.494 253.099 447.271C201.114 444.211 152.199 419.964 116.409 379.513C80.6198 339.063 60.6744 285.483 60.673 229.787Z" fill="#8A7683"/>
<path opacity="0.5" d="M418.675 225C418.674 280.696 398.728 334.276 362.939 374.726C327.149 415.176 278.234 439.424 226.249 442.484C229.948 442.691 233.678 442.803 237.437 442.819C291.438 442.819 343.228 419.87 381.413 379.021C419.598 338.172 441.05 282.769 441.05 225C441.05 167.231 419.598 111.827 381.413 70.9784C343.228 30.1294 291.438 7.18066 237.437 7.18066C233.678 7.18066 229.948 7.29237 226.249 7.51577C278.234 10.576 327.149 34.8232 362.939 75.2734C398.728 115.724 418.674 169.303 418.675 225Z" fill="#3F5A7C"/>
<path d="M239.674 450C198.075 450 157.411 436.804 122.823 412.081C88.235 387.357 61.277 352.217 45.3579 311.104C29.4388 269.991 25.2736 224.751 33.3891 181.105C41.5046 137.459 61.5362 97.3679 90.9508 65.9011C120.365 34.4343 157.842 13.0051 198.641 4.32341C239.441 -4.35826 281.73 0.0974897 320.162 17.1272C358.594 34.1569 391.443 62.9957 414.554 99.9968C437.665 136.998 450 180.499 450 225C449.935 284.652 427.755 341.842 388.325 384.022C348.895 426.203 295.436 449.93 239.674 450ZM239.674 14.3618C200.731 14.3618 162.662 26.7155 130.282 49.8608C97.9013 73.006 72.664 105.903 57.761 144.392C42.858 182.881 38.9587 225.234 46.5562 266.094C54.1537 306.953 72.9067 344.486 100.444 373.944C127.981 403.402 163.065 423.464 201.26 431.591C239.455 439.719 279.046 435.547 315.025 419.605C351.004 403.662 381.755 376.664 403.391 342.025C425.027 307.385 436.575 266.66 436.575 225C436.516 169.155 415.752 115.615 378.839 76.1263C341.925 36.6377 291.877 14.4252 239.674 14.3618Z" fill="#2E576D"/>
<path d="M238.421 408.088C204.123 408.088 170.596 397.208 142.079 376.823C113.562 356.438 91.3356 327.465 78.2114 293.567C65.0873 259.669 61.6546 222.369 68.3474 186.383C75.0401 150.398 91.5578 117.344 115.811 91.402C140.065 65.4596 170.965 47.7938 204.605 40.6387C238.244 33.4837 273.111 37.1607 304.796 51.2049C336.482 65.249 363.563 89.0294 382.615 119.539C401.666 150.048 411.832 185.916 411.828 222.606C411.769 271.784 393.479 318.929 360.971 353.7C328.464 388.472 284.391 408.031 238.421 408.088ZM238.421 41.8645C205.01 41.8645 172.35 52.4628 144.57 72.3193C116.789 92.1758 95.1368 120.399 82.3501 153.419C69.5634 186.44 66.2166 222.775 72.7331 257.83C79.2496 292.885 95.3366 325.086 118.96 350.361C142.583 375.636 172.682 392.85 205.45 399.825C238.218 406.801 272.184 403.226 303.053 389.551C333.922 375.877 360.307 352.717 378.872 323.002C397.437 293.286 407.349 258.348 407.353 222.606C407.306 174.69 389.493 128.751 357.823 94.867C326.153 60.983 283.212 41.9215 238.421 41.8645Z" fill="#2E576D"/>
<path d="M119.985 308.311C121.74 308.292 123.148 306.756 123.13 304.878C123.113 303.001 121.676 301.495 119.921 301.513C118.167 301.532 116.758 303.069 116.776 304.946C116.793 306.823 118.23 308.33 119.985 308.311Z" fill="white"/>
<path d="M119.958 318.579C121.713 318.561 123.121 317.025 123.104 315.147C123.088 313.27 121.652 311.763 119.897 311.781C118.142 311.799 116.733 313.336 116.75 315.213C116.767 317.09 118.203 318.597 119.958 318.579Z" fill="white"/>
<path d="M120.049 328.799C121.803 328.781 123.212 327.244 123.195 325.367C123.178 323.49 121.742 321.983 119.988 322.001C118.233 322.019 116.824 323.555 116.841 325.432C116.858 327.31 118.294 328.817 120.049 328.799Z" fill="white"/>
<path d="M111.035 296.343C112.79 296.324 114.198 294.787 114.18 292.91C114.163 291.033 112.726 289.526 110.971 289.545C109.216 289.564 107.808 291.101 107.826 292.978C107.843 294.855 109.28 296.362 111.035 296.343Z" fill="white"/>
<path d="M111.013 306.608C112.767 306.59 114.176 305.053 114.159 303.176C114.142 301.299 112.706 299.792 110.952 299.81C109.197 299.828 107.788 301.364 107.805 303.242C107.822 305.119 109.258 306.626 111.013 306.608Z" fill="white"/>
<path d="M111.104 316.851C112.859 316.833 114.268 315.297 114.251 313.419C114.234 311.542 112.798 310.035 111.043 310.053C109.289 310.071 107.88 311.608 107.897 313.485C107.914 315.362 109.35 316.869 111.104 316.851Z" fill="white"/>
<g opacity="0.5">
<path d="M379.492 152.607C381.247 152.588 382.655 151.051 382.637 149.174C382.62 147.297 381.183 145.79 379.428 145.809C377.673 145.828 376.265 147.365 376.283 149.242C376.3 151.119 377.737 152.625 379.492 152.607Z" fill="#3F5A7C"/>
<path d="M379.511 162.992C381.265 162.974 382.674 161.438 382.657 159.561C382.64 157.684 381.204 156.177 379.45 156.195C377.695 156.213 376.286 157.749 376.303 159.626C376.32 161.503 377.756 163.01 379.511 162.992Z" fill="#3F5A7C"/>
<path d="M379.601 173.212C381.356 173.194 382.765 171.658 382.748 169.781C382.731 167.904 381.295 166.397 379.54 166.415C377.786 166.433 376.377 167.969 376.394 169.846C376.411 171.723 377.847 173.23 379.601 173.212Z" fill="#3F5A7C"/>
<path d="M370.542 140.639C372.296 140.62 373.705 139.083 373.687 137.206C373.67 135.329 372.233 133.822 370.478 133.841C368.723 133.86 367.315 135.397 367.333 137.274C367.35 139.151 368.787 140.658 370.542 140.639Z" fill="#3F5A7C"/>
<path d="M370.565 151.022C372.32 151.004 373.729 149.467 373.712 147.59C373.695 145.713 372.259 144.206 370.504 144.224C368.75 144.242 367.341 145.779 367.358 147.656C367.374 149.533 368.811 151.04 370.565 151.022Z" fill="#3F5A7C"/>
<path d="M370.657 161.241C372.412 161.223 373.821 159.686 373.804 157.809C373.787 155.932 372.351 154.425 370.596 154.443C368.841 154.461 367.433 155.997 367.449 157.874C367.466 159.751 368.902 161.259 370.657 161.241Z" fill="#3F5A7C"/>
</g>
<g opacity="0.5">
<path d="M366.134 310.609C367.889 310.59 369.297 309.053 369.28 307.176C369.262 305.299 367.826 303.792 366.071 303.811C364.316 303.83 362.908 305.367 362.925 307.244C362.943 309.121 364.38 310.628 366.134 310.609Z" fill="#3F5A7C"/>
<path d="M366.095 320.982C367.849 320.964 369.258 319.428 369.241 317.551C369.224 315.674 367.788 314.167 366.034 314.185C364.279 314.203 362.87 315.739 362.887 317.616C362.904 319.493 364.34 321 366.095 320.982Z" fill="#3F5A7C"/>
<path d="M366.186 331.202C367.941 331.184 369.35 329.648 369.333 327.771C369.316 325.893 367.88 324.386 366.125 324.404C364.371 324.422 362.962 325.959 362.979 327.836C362.996 329.713 364.432 331.22 366.186 331.202Z" fill="#3F5A7C"/>
<path d="M357.184 298.641C358.939 298.622 360.347 297.085 360.33 295.208C360.312 293.331 358.875 291.824 357.121 291.843C355.366 291.862 353.958 293.399 353.975 295.276C353.993 297.153 355.429 298.66 357.184 298.641Z" fill="#3F5A7C"/>
<path d="M357.127 309.011C358.881 308.993 360.29 307.457 360.273 305.58C360.257 303.703 358.82 302.195 357.066 302.213C355.311 302.231 353.902 303.768 353.919 305.645C353.936 307.522 355.372 309.029 357.127 309.011Z" fill="#3F5A7C"/>
<path d="M357.219 319.23C358.973 319.212 360.382 317.676 360.365 315.799C360.348 313.922 358.912 312.415 357.158 312.433C355.403 312.451 353.994 313.987 354.011 315.864C354.028 317.741 355.464 319.248 357.219 319.23Z" fill="#3F5A7C"/>
</g>
<path d="M121.72 133.114C122.697 131.555 122.308 129.443 120.851 128.398C119.393 127.353 117.419 127.769 116.442 129.328C115.465 130.887 115.854 132.999 117.312 134.044C118.769 135.09 120.743 134.673 121.72 133.114Z" fill="white"/>
<path d="M116.379 141.595C117.357 140.036 116.967 137.925 115.51 136.879C114.052 135.834 112.079 136.25 111.101 137.81C110.124 139.369 110.514 141.48 111.971 142.526C113.429 143.571 115.402 143.154 116.379 141.595Z" fill="white"/>
<path d="M111.061 150.102C112.038 148.543 111.649 146.432 110.191 145.386C108.734 144.341 106.76 144.757 105.783 146.317C104.806 147.876 105.195 149.987 106.653 151.032C108.11 152.078 110.084 151.661 111.061 150.102Z" fill="white"/>
<path d="M120.654 117.832C121.631 116.272 121.242 114.161 119.784 113.116C118.327 112.07 116.353 112.487 115.376 114.046C114.399 115.605 114.788 117.717 116.245 118.762C117.703 119.807 119.677 119.391 120.654 117.832Z" fill="white"/>
<path d="M115.33 126.305C116.307 124.746 115.917 122.635 114.46 121.589C113.002 120.544 111.029 120.96 110.052 122.52C109.074 124.079 109.464 126.19 110.921 127.236C112.379 128.281 114.352 127.864 115.33 126.305Z" fill="white"/>
<path d="M110.011 134.788C110.988 133.228 110.599 131.117 109.142 130.072C107.684 129.026 105.71 129.443 104.733 131.002C103.756 132.561 104.145 134.673 105.603 135.718C107.06 136.763 109.034 136.347 110.011 134.788Z" fill="white"/>
<g opacity="0.5">
<path d="M291.567 420.994C293.237 420.418 294.155 418.503 293.617 416.716C293.078 414.929 291.288 413.948 289.618 414.523C287.948 415.099 287.03 417.014 287.568 418.801C288.106 420.588 289.897 421.569 291.567 420.994Z" fill="#3F5A7C"/>
<path d="M282.455 424.118C284.126 423.542 285.043 421.627 284.505 419.84C283.967 418.054 282.177 417.072 280.507 417.648C278.836 418.223 277.919 420.138 278.457 421.925C278.995 423.712 280.785 424.693 282.455 424.118Z" fill="#3F5A7C"/>
<path d="M273.366 427.258C275.036 426.683 275.953 424.768 275.415 422.981C274.877 421.194 273.087 420.212 271.417 420.788C269.747 421.364 268.829 423.279 269.367 425.066C269.905 426.852 271.695 427.834 273.366 427.258Z" fill="#3F5A7C"/>
<path d="M299.575 408.279C301.245 407.703 302.162 405.788 301.624 404.001C301.086 402.215 299.296 401.233 297.626 401.809C295.956 402.384 295.038 404.3 295.576 406.086C296.114 407.873 297.904 408.855 299.575 408.279Z" fill="#3F5A7C"/>
<path d="M290.485 411.42C292.155 410.844 293.073 408.929 292.534 407.142C291.996 405.355 290.206 404.374 288.536 404.949C286.866 405.525 285.948 407.44 286.486 409.227C287.024 411.014 288.815 411.995 290.485 411.42Z" fill="#3F5A7C"/>
<path d="M281.373 414.543C283.044 413.967 283.961 412.052 283.423 410.266C282.885 408.479 281.095 407.497 279.425 408.073C277.754 408.649 276.837 410.564 277.375 412.35C277.913 414.137 279.703 415.119 281.373 414.543Z" fill="#3F5A7C"/>
</g>
<path d="M100.727 270.045C102.482 270.027 103.891 268.491 103.874 266.614C103.857 264.737 102.421 263.23 100.666 263.248C98.9117 263.266 97.5029 264.802 97.5198 266.679C97.5366 268.556 98.9727 270.063 100.727 270.045Z" fill="white"/>
<path d="M100.797 280.288C102.551 280.27 103.96 278.734 103.943 276.857C103.926 274.98 102.49 273.473 100.736 273.491C98.981 273.509 97.5722 275.045 97.5891 276.922C97.6059 278.799 99.042 280.306 100.797 280.288Z" fill="white"/>
<path d="M100.889 290.508C102.643 290.49 104.052 288.953 104.035 287.076C104.018 285.199 102.582 283.692 100.828 283.71C99.0728 283.728 97.664 285.264 97.6809 287.141C97.6977 289.019 99.1338 290.526 100.889 290.508Z" fill="white"/>
<path d="M69.623 247.237H113.076" stroke="#2E576D" stroke-miterlimit="10"/>
<path d="M116.588 250.732C118.392 250.732 119.855 249.167 119.855 247.237C119.855 245.307 118.392 243.742 116.588 243.742C114.784 243.742 113.321 245.307 113.321 247.237C113.321 249.167 114.784 250.732 116.588 250.732Z" stroke="#2E576D" stroke-miterlimit="10"/>
<path d="M67.2959 237.614H103.365" stroke="#2E576D" stroke-miterlimit="10"/>
<path d="M106.877 241.109C108.681 241.109 110.144 239.544 110.144 237.614C110.144 235.684 108.681 234.12 106.877 234.12C105.073 234.12 103.61 235.684 103.61 237.614C103.61 239.544 105.073 241.109 106.877 241.109Z" stroke="#2E576D" stroke-miterlimit="10"/>
<path d="M67.2959 218.37H88.6194" stroke="#2E576D" stroke-miterlimit="10"/>
<path d="M92.132 221.864C93.9362 221.864 95.3988 220.3 95.3988 218.37C95.3988 216.44 93.9362 214.875 92.132 214.875C90.3278 214.875 88.8652 216.44 88.8652 218.37C88.8652 220.3 90.3278 221.864 92.132 221.864Z" stroke="#2E576D" stroke-miterlimit="10"/>
<path d="M68.459 227.992H112.068" stroke="#2E576D" stroke-miterlimit="10"/>
<path d="M115.581 231.487C117.385 231.487 118.848 229.922 118.848 227.992C118.848 226.062 117.385 224.498 115.581 224.498C113.777 224.498 112.314 226.062 112.314 227.992C112.314 229.922 113.777 231.487 115.581 231.487Z" stroke="#2E576D" stroke-miterlimit="10"/>
<path d="M406.145 247.237H362.692" stroke="#2E576D" stroke-miterlimit="10"/>
<path d="M359.179 250.732C360.983 250.732 362.446 249.167 362.446 247.237C362.446 245.307 360.983 243.742 359.179 243.742C357.375 243.742 355.912 245.307 355.912 247.237C355.912 249.167 357.375 250.732 359.179 250.732Z" stroke="#2E576D" stroke-miterlimit="10"/>
<path d="M408.472 237.614H372.403" stroke="#2E576D" stroke-miterlimit="10"/>
<path d="M368.89 241.109C370.694 241.109 372.157 239.544 372.157 237.614C372.157 235.684 370.694 234.12 368.89 234.12C367.086 234.12 365.623 235.684 365.623 237.614C365.623 239.544 367.086 241.109 368.89 241.109Z" stroke="#2E576D" stroke-miterlimit="10"/>
<path d="M408.472 218.37H387.148" stroke="#2E576D" stroke-miterlimit="10"/>
<path d="M383.657 221.864C385.462 221.864 386.924 220.3 386.924 218.37C386.924 216.44 385.462 214.875 383.657 214.875C381.853 214.875 380.391 216.44 380.391 218.37C380.391 220.3 381.853 221.864 383.657 221.864Z" stroke="#2E576D" stroke-miterlimit="10"/>
<path d="M407.308 227.992H363.699" stroke="#2E576D" stroke-miterlimit="10"/>
<path d="M360.186 231.487C361.99 231.487 363.453 229.922 363.453 227.992C363.453 226.062 361.99 224.498 360.186 224.498C358.382 224.498 356.919 226.062 356.919 227.992C356.919 229.922 358.382 231.487 360.186 231.487Z" stroke="#2E576D" stroke-miterlimit="10"/>
</g>
<path d="M114.557 248.073L159.426 360.183L366.323 140.038V119.654L232.961 171.633L114.557 248.073Z" fill="url(#paint0_linear_877_10)"/>
<path d="M159.427 360.183L366.324 198.642V119.654L291.542 205.267L174.382 268.457L159.427 360.183Z" fill="url(#paint1_linear_877_10)"/>
<path d="M24.84 191.87C7.97837 197.087 8.19915 217.012 25.1734 221.969L114.552 248.072L366.318 119.653L174.378 268.457L334.441 369.276C345.736 376.39 362.078 371.231 364.87 359.669L429.317 92.7737C432.283 80.4835 417.897 70.2537 403.786 74.6199L24.84 191.87Z" fill="url(#paint2_linear_877_10)"/>
<path d="M213.134 270.986C213.151 271.527 212.927 271.822 212.463 271.871L203.077 273.021C202.706 273.072 202.413 272.912 202.196 272.541C202.01 272.221 202.005 271.867 202.18 271.478L206.626 261.835C206.843 261.363 207.163 261.232 207.583 261.443C207.989 261.667 208.083 262.027 207.868 262.523L203.576 271.78L203.342 271.378L212.397 270.28C212.866 270.24 213.112 270.475 213.134 270.986ZM220.691 270.384C220.274 270.711 219.932 270.645 219.666 270.187L210.744 254.848C210.478 254.39 210.553 253.997 210.97 253.67C211.269 253.436 211.593 253.402 211.942 253.569L223.559 258.826L223.299 259.087L223.415 244.571C223.404 244.139 223.564 243.793 223.894 243.534C224.264 243.244 224.582 243.328 224.849 243.786L233.771 259.125C234.037 259.583 233.966 259.973 233.557 260.294C233.14 260.621 232.798 260.555 232.531 260.097L224.401 246.12L224.843 245.962L224.699 259.367C224.697 259.797 224.535 260.138 224.212 260.391C223.929 260.613 223.615 260.645 223.271 260.487L212.509 255.636L212.934 255.51L220.905 269.215C221.172 269.673 221.1 270.063 220.691 270.384ZM243.18 252.746C241.473 254.085 239.974 254.631 238.685 254.384C237.395 254.137 236.205 253.075 235.114 251.199L231.675 245.287C230.574 243.394 230.168 241.711 230.457 240.238C230.741 238.756 231.734 237.361 233.436 236.051L236.292 233.811C237.999 232.472 239.494 231.929 240.776 232.182C242.065 232.43 243.256 233.491 244.347 235.367L247.778 241.267C248.869 243.143 249.273 244.821 248.989 246.303C248.712 247.778 247.72 249.185 246.013 250.525L243.18 252.746ZM242.388 251.385L245.221 249.163C246.126 248.453 246.771 247.759 247.155 247.08C247.539 246.401 247.678 245.675 247.572 244.902C247.467 244.129 247.122 243.241 246.539 242.239L243.107 236.339C242.529 235.345 241.951 234.647 241.373 234.244C240.795 233.841 240.163 233.72 239.477 233.88C238.787 234.032 237.989 234.463 237.084 235.172L234.227 237.413C233.317 238.114 232.67 238.804 232.286 239.483C231.905 240.147 231.77 240.87 231.88 241.651C231.986 242.424 232.331 243.312 232.914 244.315L236.353 250.227C236.936 251.23 237.517 251.933 238.095 252.335C238.673 252.738 239.304 252.859 239.99 252.699C240.676 252.539 241.476 252.101 242.388 251.385ZM265.321 235.419C265.213 235.668 265.079 235.83 264.917 235.906C264.755 235.983 264.566 235.974 264.351 235.878L256.542 232.146L252.211 235.544L255.853 241.806C256.12 242.264 256.048 242.654 255.639 242.975C255.222 243.302 254.88 243.236 254.614 242.778L245.692 227.439C245.426 226.981 245.501 226.588 245.918 226.261L251.442 221.929C252.788 220.874 254.024 220.458 255.151 220.682C256.286 220.9 257.283 221.747 258.143 223.226L258.595 224.004C259.354 225.309 259.679 226.546 259.568 227.715C259.458 228.884 258.919 229.968 257.952 230.965L264.979 234.328C265.43 234.553 265.544 234.917 265.321 235.419ZM251.419 234.182L256.329 230.331C257.32 229.554 257.897 228.743 258.059 227.898C258.224 227.039 257.989 226.065 257.356 224.975L256.903 224.198C256.265 223.1 255.574 222.483 254.831 222.349C254.091 222.199 253.225 222.513 252.234 223.291L247.324 227.141L251.419 234.182ZM273.05 229.339C272.861 229.487 272.673 229.547 272.484 229.518C272.304 229.484 272.153 229.363 272.032 229.155L263.48 214.451L258.464 218.386C258.275 218.534 258.087 218.593 257.898 218.565C257.718 218.53 257.567 218.409 257.446 218.202C257.326 217.994 257.285 217.787 257.325 217.58C257.368 217.357 257.483 217.172 257.672 217.024L268.956 208.175C269.145 208.026 269.332 207.974 269.517 208.017C269.698 208.052 269.849 208.173 269.969 208.38C270.09 208.588 270.13 208.795 270.091 209.003C270.051 209.21 269.937 209.388 269.748 209.536L264.72 213.479L273.272 228.183C273.387 228.382 273.424 228.592 273.381 228.815C273.342 229.022 273.231 229.197 273.05 229.339ZM278.819 224.701C278.336 224.816 278.046 224.603 277.949 224.062L274.957 204.261C274.877 203.808 275.006 203.449 275.344 203.183L275.415 203.128C275.743 202.883 276.074 202.881 276.409 203.122L291.109 213.74C291.513 214.041 291.579 214.429 291.307 214.907C291.022 215.382 290.684 215.471 290.293 215.174L286.348 212.32L278.617 218.384L279.422 223.699C279.506 224.238 279.305 224.571 278.819 224.701ZM278.332 216.624L285.036 211.366L276.631 205.308L278.332 216.624ZM305.077 204.202C303.369 205.541 301.871 206.087 300.581 205.84C299.292 205.593 298.101 204.531 297.01 202.655L293.579 196.756C292.478 194.862 292.068 193.183 292.349 191.716C292.638 190.243 293.633 188.84 295.332 187.507L298.189 185.267C299.636 184.131 300.908 183.619 302.003 183.729C303.094 183.83 304.099 184.584 305.019 185.989C305.179 186.204 305.239 186.415 305.199 186.623C305.167 186.824 305.049 187.005 304.844 187.165C304.451 187.474 304.101 187.414 303.795 186.987C303.117 185.958 302.419 185.429 301.703 185.399C300.982 185.361 300.074 185.77 298.98 186.628L296.124 188.868C295.219 189.578 294.575 190.272 294.19 190.951C293.801 191.622 293.662 192.348 293.773 193.129C293.886 193.896 294.235 194.781 294.818 195.784L298.25 201.683C298.833 202.686 299.413 203.389 299.991 203.791C300.569 204.194 301.201 204.315 301.887 204.155C302.573 203.995 303.372 203.556 304.285 202.841L307.118 200.619C308.211 199.761 308.88 198.941 309.124 198.158C309.363 197.367 309.198 196.414 308.629 195.298C308.402 194.809 308.485 194.411 308.879 194.102C309.083 193.942 309.275 193.886 309.452 193.936C309.633 193.97 309.777 194.109 309.884 194.352C310.663 195.869 310.892 197.238 310.57 198.459C310.244 199.671 309.357 200.845 307.91 201.98L305.077 204.202ZM320.776 191.89C319.068 193.229 317.57 193.775 316.28 193.527C314.99 193.28 313.8 192.219 312.709 190.343L309.27 184.43C308.169 182.537 307.763 180.854 308.052 179.381C308.336 177.9 309.329 176.504 311.031 175.195L313.887 172.955C315.595 171.615 317.09 171.073 318.371 171.326C319.661 171.573 320.851 172.635 321.942 174.511L325.374 180.41C326.465 182.286 326.868 183.965 326.584 185.446C326.308 186.922 325.316 188.329 323.609 189.668L320.776 191.89ZM319.984 190.528L322.817 188.307C323.722 187.597 324.366 186.903 324.75 186.224C325.135 185.545 325.274 184.819 325.168 184.046C325.062 183.273 324.718 182.385 324.134 181.382L320.703 175.483C320.125 174.489 319.547 173.79 318.969 173.387C318.391 172.985 317.759 172.864 317.073 173.024C316.382 173.176 315.584 173.606 314.679 174.316L311.823 176.556C310.913 177.257 310.266 177.947 309.882 178.626C309.5 179.29 309.365 180.013 309.476 180.795C309.582 181.568 309.926 182.456 310.509 183.458L313.948 189.371C314.532 190.374 315.112 191.076 315.69 191.479C316.268 191.882 316.9 192.003 317.586 191.843C318.272 191.682 319.071 191.244 319.984 190.528ZM333.235 182.118C332.818 182.445 332.476 182.38 332.21 181.922L323.288 166.583C323.021 166.125 323.097 165.732 323.514 165.405L329.203 160.943C331.162 159.406 332.873 158.782 334.335 159.07C335.805 159.352 337.166 160.569 338.418 162.722L340.945 167.065C342.197 169.218 342.661 171.139 342.337 172.827C342.021 174.51 340.883 176.12 338.924 177.657L333.235 182.118ZM333.057 180.276L338.132 176.295C339.202 175.456 339.965 174.631 340.422 173.82C340.886 173.002 341.056 172.133 340.932 171.21C340.803 170.279 340.394 169.222 339.705 168.037L337.179 163.694C336.495 162.518 335.808 161.691 335.118 161.213C334.422 160.727 333.661 160.581 332.835 160.776C332.012 160.956 331.065 161.465 329.995 162.305L324.919 166.285L333.057 180.276ZM349.256 169.553C348.839 169.88 348.498 169.814 348.231 169.356L339.31 154.017C339.043 153.559 339.118 153.166 339.535 152.839L348.376 145.906C348.793 145.579 349.135 145.645 349.401 146.103C349.663 146.552 349.585 146.94 349.168 147.268L340.941 153.72L344.553 159.93L349.995 155.663C350.412 155.336 350.751 155.397 351.012 155.847C351.279 156.305 351.204 156.697 350.786 157.024L345.345 161.292L349.078 167.71L357.305 161.258C357.722 160.931 358.061 160.992 358.323 161.442C358.589 161.9 358.514 162.293 358.097 162.62L349.256 169.553ZM363.446 163.598C363.202 163.789 362.974 163.842 362.764 163.755C362.566 163.671 362.428 163.484 362.35 163.192L355.161 138.716C355.025 138.306 355.119 137.974 355.442 137.721C355.693 137.524 355.918 137.467 356.116 137.551C356.317 137.62 356.467 137.81 356.568 138.122L363.746 162.607C363.876 163.009 363.776 163.339 363.446 163.598ZM368.171 149.394C367.763 149.185 367.667 148.833 367.883 148.336L372.141 138.992L372.375 139.394L363.365 140.57C362.896 140.61 362.648 140.371 362.621 139.851C362.601 139.325 362.821 139.033 363.28 138.975L372.643 137.787C373.019 137.744 373.3 137.882 373.486 138.202C373.703 138.574 373.721 138.949 373.541 139.33L369.117 149.011C368.905 149.492 368.589 149.62 368.171 149.394Z" fill="white"/>
<defs>
<linearGradient id="paint0_linear_877_10" x1="240.44" y1="119.654" x2="240.44" y2="360.183" gradientUnits="userSpaceOnUse">
<stop/>
<stop offset="1" stop-color="#0E6E93"/>
</linearGradient>
<linearGradient id="paint1_linear_877_10" x1="262.875" y1="203.139" x2="262.875" y2="360.183" gradientUnits="userSpaceOnUse">
<stop stop-color="#053B50"/>
<stop offset="1"/>
</linearGradient>
<linearGradient id="paint2_linear_877_10" x1="221.013" y1="73.5938" x2="221.013" y2="372.529" gradientUnits="userSpaceOnUse">
<stop stop-color="#14C1D6"/>
<stop offset="1" stop-color="#17737E"/>
</linearGradient>
<clipPath id="clip0_877_10">
<rect width="420.652" height="450" fill="white" transform="translate(29.3477)"/>
</clipPath>
</defs>
</svg>
