<svg id="visual" viewBox="0 0 2440 740" width="2440" height="740" xmlns="http://www.w3.org/2000/svg" xmlns:xlink="http://www.w3.org/1999/xlink" version="1.1"><rect x="0" y="0" width="2440" height="740" fill="#fff"></rect><path d="M0 459L58.2 471C116.3 483 232.7 507 348.8 514.2C465 521.3 581 511.7 697.2 501C813.3 490.3 929.7 478.7 1045.8 476.2C1162 473.7 1278 480.3 1394.2 492.7C1510.3 505 1626.7 523 1742.8 516.3C1859 509.7 1975 478.3 2091.2 476.5C2207.3 474.7 2323.7 502.3 2381.8 516.2L2440 530L2440 741L2381.8 741C2323.7 741 2207.3 741 2091.2 741C1975 741 1859 741 1742.8 741C1626.7 741 1510.3 741 1394.2 741C1278 741 1162 741 1045.8 741C929.7 741 813.3 741 697.2 741C581 741 465 741 348.8 741C232.7 741 116.3 741 58.2 741L0 741Z" fill="#2e1065"></path><path d="M0 503L58.2 513.5C116.3 524 232.7 545 348.8 557.5C465 570 581 574 697.2 573.7C813.3 573.3 929.7 568.7 1045.8 556.7C1162 544.7 1278 525.3 1394.2 520.7C1510.3 516 1626.7 526 1742.8 532.8C1859 539.7 1975 543.3 2091.2 546.8C2207.3 550.3 2323.7 553.7 2381.8 555.3L2440 557L2440 741L2381.8 741C2323.7 741 2207.3 741 2091.2 741C1975 741 1859 741 1742.8 741C1626.7 741 1510.3 741 1394.2 741C1278 741 1162 741 1045.8 741C929.7 741 813.3 741 697.2 741C581 741 465 741 348.8 741C232.7 741 116.3 741 58.2 741L0 741Z" fill="#391479"></path><path d="M0 563L58.2 571.7C116.3 580.3 232.7 597.7 348.8 605.3C465 613 581 611 697.2 605.7C813.3 600.3 929.7 591.7 1045.8 587.5C1162 583.3 1278 583.7 1394.2 586.2C1510.3 588.7 1626.7 593.3 1742.8 598.3C1859 603.3 1975 608.7 2091.2 611.5C2207.3 614.3 2323.7 614.7 2381.8 614.8L2440 615L2440 741L2381.8 741C2323.7 741 2207.3 741 2091.2 741C1975 741 1859 741 1742.8 741C1626.7 741 1510.3 741 1394.2 741C1278 741 1162 741 1045.8 741C929.7 741 813.3 741 697.2 741C581 741 465 741 348.8 741C232.7 741 116.3 741 58.2 741L0 741Z" fill="#44198d"></path><path d="M0 632L58.2 632.8C116.3 633.7 232.7 635.3 348.8 634.8C465 634.3 581 631.7 697.2 628.8C813.3 626 929.7 623 1045.8 624.3C1162 625.7 1278 631.3 1394.2 632.3C1510.3 633.3 1626.7 629.7 1742.8 625.5C1859 621.3 1975 616.7 2091.2 613.3C2207.3 610 2323.7 608 2381.8 607L2440 606L2440 741L2381.8 741C2323.7 741 2207.3 741 2091.2 741C1975 741 1859 741 1742.8 741C1626.7 741 1510.3 741 1394.2 741C1278 741 1162 741 1045.8 741C929.7 741 813.3 741 697.2 741C581 741 465 741 348.8 741C232.7 741 116.3 741 58.2 741L0 741Z" fill="#4f1da1"></path><path d="M0 702L58.2 697.5C116.3 693 232.7 684 348.8 681.5C465 679 581 683 697.2 685C813.3 687 929.7 687 1045.8 687.7C1162 688.3 1278 689.7 1394.2 693C1510.3 696.3 1626.7 701.7 1742.8 700.2C1859 698.7 1975 690.3 2091.2 682.2C2207.3 674 2323.7 666 2381.8 662L2440 658L2440 741L2381.8 741C2323.7 741 2207.3 741 2091.2 741C1975 741 1859 741 1742.8 741C1626.7 741 1510.3 741 1394.2 741C1278 741 1162 741 1045.8 741C929.7 741 813.3 741 697.2 741C581 741 465 741 348.8 741C232.7 741 116.3 741 58.2 741L0 741Z" fill="#5b21b6"></path></svg>