<svg width="113" height="61" viewBox="0 0 113 61" fill="none" xmlns="http://www.w3.org/2000/svg">
<path d="M0.0833142 58.8673L0.640467 0.909986L10.72 1.00688L28.7184 38.7116L47.3483 1.359L57.4278 1.45589L56.8707 59.4132L47.1511 59.3198L47.5552 17.2917L31.5879 49.1797L25.6482 49.1226L10.2069 16.9327L9.80287 58.9607L0.0833142 58.8673ZM95.3655 60.6833C85.8259 60.5916 78.6214 57.9122 73.7518 52.6452C68.9422 47.3787 66.58 40.3057 66.6654 31.4261C66.7265 25.0664 67.799 19.6164 69.8827 15.0762C72.027 10.4766 75.2409 6.96738 79.5244 4.54844C83.8084 2.06951 89.2503 0.861765 95.85 0.925209C99.2098 0.957508 102.267 1.25691 105.022 1.82342C107.837 2.3305 110.441 3.01556 112.832 3.87859L112.75 12.4282C110.36 11.4452 107.787 10.7004 105.031 10.1939C102.337 9.62797 99.4893 9.33058 96.4895 9.30174C89.2898 9.23253 84.1716 11.1034 81.1348 14.9144C78.158 18.726 76.6347 24.2616 76.565 31.5212C76.4998 38.3009 78.0701 43.4763 81.2759 47.0472C84.4823 50.5582 89.4754 52.3463 96.2551 52.4115C99.0149 52.438 101.777 52.2546 104.541 51.8611C107.365 51.4082 110.012 50.7136 112.481 49.7773L112.398 58.4169C109.991 59.1738 107.375 59.7487 104.551 60.1416C101.787 60.535 98.7253 60.7156 95.3655 60.6833Z" fill="white"/>
</svg>
